<svg width="14" height="14" viewBox="0 0 14 14" fill="none" xmlns="http://www.w3.org/2000/svg">
    <path d="M10.1252 13.25C10.1804 13.25 10.2334 13.2281 10.2725 13.189C10.3115 13.1499 10.3335 13.0969 10.3335 13.0417V11.4604L11.7381 10.3595C11.9139 10.2195 12.1494 9.94495 12.2414 9.72661L13.2331 7.42116C13.2444 7.39511 13.2502 7.36703 13.2502 7.33866V5.3307C13.2502 5.07153 12.9565 4.88028 12.6727 4.8457C12.321 4.80028 11.8789 4.99153 11.7123 5.65696C11.6264 6.00238 11.6073 6.29447 11.5902 6.55198C11.5861 6.60801 11.6041 6.66342 11.6403 6.70638C11.6765 6.74935 11.728 6.77648 11.7839 6.78198C11.8989 6.7899 11.9977 6.71114 12.0048 6.59656C12.0219 6.33905 12.0398 6.06697 12.1169 5.75738C12.1694 5.54821 12.2819 5.29112 12.5223 5.25904C12.6831 5.23612 12.8177 5.32237 12.8398 5.36154L12.8335 7.29574L11.8581 9.56369C11.7973 9.70911 11.6081 9.93037 11.4798 10.0329L9.99641 11.1954C9.97154 11.2148 9.95145 11.2397 9.93765 11.268C9.92386 11.2964 9.91674 11.3276 9.91682 11.3591V13.0417C9.91682 13.0969 9.93877 13.1499 9.97784 13.189C10.0169 13.2281 10.0699 13.25 10.1252 13.25ZM3.87505 13.25C3.8198 13.25 3.76681 13.2281 3.72774 13.189C3.68867 13.1499 3.66672 13.0969 3.66672 13.0417V11.4604L2.26211 10.3595C2.08627 10.2195 1.85085 9.94495 1.75877 9.72661L0.767084 7.42116C0.755807 7.39511 0.749993 7.36703 0.75 7.33866V5.3307C0.75 5.07153 1.04375 4.88028 1.32751 4.8457C1.67918 4.80028 2.12127 4.99153 2.28794 5.65696C2.37378 6.00238 2.39294 6.29447 2.41003 6.55198C2.4141 6.60801 2.39612 6.66342 2.35993 6.70638C2.32373 6.74935 2.27219 6.77648 2.21627 6.78198C2.10127 6.7899 2.00252 6.71114 1.99544 6.59656C1.97835 6.33905 1.96044 6.06697 1.88335 5.75738C1.83085 5.54821 1.71835 5.29112 1.47793 5.25904C1.31709 5.23612 1.18251 5.32237 1.16042 5.36154L1.16667 7.29574L2.14211 9.56369C2.20294 9.70911 2.39211 9.93037 2.52045 10.0329L4.00381 11.1954C4.02867 11.2148 4.04877 11.2397 4.06256 11.268C4.07635 11.2964 4.08348 11.3276 4.08339 11.3591V13.0417C4.08339 13.0969 4.06144 13.1499 4.02237 13.189C3.9833 13.2281 3.93031 13.25 3.87505 13.25ZM6.3751 13.25C6.31984 13.25 6.26685 13.2281 6.22778 13.189C6.18871 13.1499 6.16676 13.0969 6.16676 13.0417V10.7654C6.16676 9.88745 5.5605 9.12202 4.69215 8.90368C4.66561 8.89701 4.64065 8.88517 4.61868 8.86885C4.59672 8.85252 4.57819 8.83203 4.56414 8.80855C4.5501 8.78506 4.54082 8.75904 4.53683 8.73197C4.53284 8.70489 4.53422 8.6773 4.5409 8.65076C4.54757 8.62422 4.55941 8.59926 4.57573 8.5773C4.59206 8.55533 4.61255 8.5368 4.63603 8.52275C4.65952 8.50871 4.68554 8.49943 4.71261 8.49544C4.73969 8.49145 4.76728 8.49283 4.79382 8.49951C5.84717 8.76451 6.58343 9.6962 6.58343 10.7654V13.0417C6.58343 13.0969 6.56148 13.1499 6.52241 13.189C6.48334 13.2281 6.43035 13.25 6.3751 13.25Z" fill="white"/>
    <path d="M3.98441 9.67374C3.92914 9.67375 3.87611 9.65188 3.83691 9.61291L2.00896 7.78788C1.98956 7.76853 1.97417 7.74554 1.96366 7.72023C1.95316 7.69491 1.94775 7.66778 1.94775 7.64038C1.94775 7.61297 1.95316 7.58584 1.96366 7.56053C1.97417 7.53522 1.98956 7.51223 2.00896 7.49287C2.58189 6.91995 3.28815 6.96828 3.94608 7.62621L4.88568 8.56373C4.9248 8.60279 4.9468 8.6558 4.94684 8.71108C4.94687 8.76637 4.92495 8.8194 4.88588 8.85852C4.84682 8.89764 4.79381 8.91964 4.73853 8.91968C4.68324 8.91972 4.63021 8.8978 4.59109 8.85873L3.65149 7.92122C3.2244 7.49412 2.82481 7.40371 2.46355 7.65288L4.13108 9.31791C4.15984 9.34715 4.17937 9.3842 4.18724 9.42445C4.19512 9.4647 4.19098 9.50638 4.17535 9.5443C4.15972 9.58222 4.13329 9.61471 4.09934 9.63772C4.06539 9.66074 4.02542 9.67326 3.98441 9.67374ZM7.62531 13.2501C7.57005 13.2501 7.51706 13.2281 7.47799 13.189C7.43892 13.15 7.41697 13.097 7.41697 13.0417V10.7654C7.41697 9.69625 8.15323 8.76456 9.20658 8.49956C9.23313 8.49276 9.26075 8.49129 9.28786 8.49523C9.31498 8.49916 9.34104 8.50843 9.36456 8.52249C9.38807 8.53655 9.40857 8.55513 9.42486 8.57715C9.44116 8.59918 9.45293 8.62421 9.45951 8.65081C9.47277 8.7044 9.46431 8.76105 9.43598 8.80843C9.40765 8.85581 9.36174 8.89006 9.30825 8.90373C8.4399 9.12207 7.83364 9.8875 7.83364 10.7654V13.0417C7.83364 13.097 7.81169 13.15 7.77262 13.189C7.73355 13.2281 7.68056 13.2501 7.62531 13.2501Z" fill="white"/>
    <path d="M10.016 9.67374C9.97491 9.67343 9.93483 9.66102 9.90076 9.63806C9.86668 9.61511 9.84012 9.58263 9.82439 9.54468C9.80866 9.50672 9.80445 9.46498 9.81229 9.42465C9.82013 9.38432 9.83968 9.3472 9.86849 9.31791L11.536 7.65288C11.1752 7.40412 10.7752 7.49454 10.3481 7.92122L9.40848 8.85873C9.36936 8.8978 9.31632 8.91972 9.26104 8.91968C9.20575 8.91964 9.15275 8.89764 9.11368 8.85852C9.07462 8.8194 9.0527 8.76637 9.05273 8.71108C9.05277 8.6558 9.07477 8.60279 9.11389 8.56373L10.0535 7.62621C10.7114 6.96828 11.4177 6.91995 11.9906 7.49287C12.01 7.51223 12.0254 7.53522 12.0359 7.56053C12.0464 7.58584 12.0518 7.61297 12.0518 7.64038C12.0518 7.66778 12.0464 7.69491 12.0359 7.72023C12.0254 7.74554 12.01 7.76853 11.9906 7.78788L10.1627 9.61291C10.1435 9.63226 10.1206 9.6476 10.0954 9.65804C10.0703 9.66848 10.0432 9.67382 10.016 9.67374Z" fill="white"/>
    <path d="M10.0159 9.67373C9.97486 9.67341 9.93478 9.661 9.90071 9.63805C9.86663 9.6151 9.84007 9.58262 9.82434 9.54466C9.80861 9.50671 9.8044 9.46497 9.81224 9.42464C9.82009 9.38431 9.83963 9.34718 9.86844 9.31789L11.536 7.65286C11.1751 7.40411 10.7751 7.49453 10.348 7.9212L9.40843 8.85872C9.36931 8.89778 9.31627 8.91971 9.26099 8.91967C9.2057 8.91963 9.1527 8.89763 9.11364 8.85851C9.07457 8.81939 9.05265 8.76635 9.05268 8.71107C9.05272 8.65578 9.07472 8.60278 9.11384 8.56371L10.0534 7.6262C10.7114 6.96827 11.4176 6.91994 11.9906 7.49286C12.01 7.51222 12.0254 7.5352 12.0359 7.56052C12.0464 7.58583 12.0518 7.61296 12.0518 7.64036C12.0518 7.66777 12.0464 7.6949 12.0359 7.72021C12.0254 7.74552 12.01 7.76851 11.9906 7.78787L10.1626 9.6129C10.1434 9.63224 10.1206 9.64758 10.0954 9.65803C10.0702 9.66847 10.0432 9.67381 10.0159 9.67373ZM7.91632 5.52033C7.8034 5.52033 7.69049 5.51116 7.57757 5.49241C7.03839 5.40283 6.56588 5.10824 6.24713 4.6624C5.92837 4.21656 5.80254 3.67405 5.89171 3.13487C5.9255 2.95702 6.02756 2.79945 6.17604 2.69588C6.32453 2.59231 6.50765 2.55097 6.68624 2.5807C6.86482 2.61042 7.02467 2.70886 7.1316 2.85495C7.23853 3.00103 7.28404 3.18316 7.2584 3.36238C7.23339 3.51238 7.26173 3.6678 7.33673 3.79905C7.35035 3.8228 7.35917 3.849 7.36267 3.87615C7.36617 3.9033 7.36429 3.93088 7.35713 3.95731C7.34997 3.98373 7.33768 4.00849 7.32095 4.03017C7.30422 4.05184 7.28339 4.07001 7.25964 4.08364C7.2359 4.09726 7.2097 4.10608 7.18254 4.10958C7.15539 4.11308 7.12781 4.11119 7.10139 4.10404C7.07496 4.09688 7.0502 4.08458 7.02853 4.06786C7.00685 4.05113 6.98868 4.0303 6.97506 4.00655C6.85193 3.79091 6.80663 3.53952 6.84672 3.29446C6.85866 3.22215 6.84147 3.14806 6.79891 3.0884C6.75635 3.02874 6.69189 2.98836 6.61963 2.97612C6.54739 2.9643 6.47341 2.98155 6.41384 3.02409C6.35427 3.06664 6.31396 3.13103 6.30171 3.20321C6.23046 3.63238 6.33088 4.06447 6.58505 4.41989C6.83922 4.77532 7.21589 5.01032 7.64507 5.08157C7.76299 5.10074 7.88257 5.10824 7.99924 5.10157C8.02657 5.10015 8.05392 5.10412 8.07971 5.11327C8.10551 5.12241 8.12925 5.13655 8.14958 5.15487C8.16992 5.17319 8.18644 5.19534 8.19821 5.22004C8.20999 5.24475 8.21678 5.27153 8.2182 5.29887C8.21963 5.3262 8.21565 5.35354 8.20651 5.37934C8.19736 5.40513 8.18322 5.42888 8.1649 5.44921C8.14658 5.46954 8.12444 5.48607 8.09973 5.49784C8.07502 5.50961 8.04824 5.51641 8.02091 5.51783C7.98607 5.51951 7.9512 5.52035 7.91632 5.52033Z" fill="white"/>
    <path d="M6.70222 8.33325C6.51138 8.33325 6.30846 8.31492 6.09179 8.27492C5.52845 8.17075 5.06886 7.84657 4.79719 7.36115C4.6101 7.02739 4.45343 6.5053 4.55885 5.74029C4.48654 5.77342 4.411 5.79898 4.33343 5.81654C4.04467 5.88612 3.6305 5.76446 3.38966 5.54029C3.20716 5.36987 3.12757 5.14861 3.16632 4.91736C3.20007 4.71777 3.29841 4.55902 3.45091 4.45777C3.62467 4.34276 3.83342 4.32401 3.97884 4.33276C4.26968 3.56442 4.88344 3.18816 5.58178 3.3665C5.8897 3.44525 6.14012 3.63567 6.30554 3.91692C6.6068 4.42818 6.58013 5.12319 6.45471 5.60279C6.44915 5.63061 6.43796 5.657 6.42184 5.68035C6.40571 5.70369 6.38498 5.7235 6.36093 5.73855C6.33688 5.7536 6.31001 5.76358 6.28196 5.76787C6.25391 5.77217 6.22529 5.77069 6.19783 5.76353C6.17038 5.75636 6.14468 5.74367 6.1223 5.72622C6.09993 5.70877 6.08135 5.68694 6.06772 5.66206C6.05408 5.63717 6.04567 5.60977 6.04301 5.58152C6.04034 5.55327 6.04347 5.52478 6.05221 5.49778C6.15096 5.11694 6.18304 4.53027 5.94679 4.12859C5.89726 4.04011 5.83016 3.96268 5.74963 3.90106C5.66909 3.83943 5.57681 3.79492 5.47845 3.77025C4.94885 3.634 4.51926 3.95317 4.32218 4.61985C4.307 4.67093 4.27287 4.71427 4.22678 4.74099C4.18069 4.76772 4.12612 4.77581 4.07426 4.76361C4.00634 4.74819 3.80134 4.72569 3.6805 4.80652C3.6455 4.83027 3.59675 4.87444 3.57758 4.98736C3.57175 5.02111 3.55425 5.12444 3.67383 5.23611C3.83634 5.38737 4.11634 5.4407 4.23593 5.41195C4.38343 5.37653 4.57968 5.32903 4.79094 4.80361C4.81469 4.73527 4.83969 4.66569 4.86719 4.59485C4.88581 4.5428 4.92434 4.50028 4.97431 4.47664C5.02428 4.45301 5.0816 4.45019 5.13365 4.46881C5.1857 4.48743 5.22822 4.52596 5.25186 4.57594C5.2755 4.62591 5.27831 4.68322 5.25969 4.73527C5.23428 4.80986 5.20928 4.87902 5.18344 4.94361C4.86802 5.85821 4.8601 6.62072 5.16094 7.15823C5.37094 7.53324 5.72845 7.78449 6.16804 7.86574C8.01807 8.20658 8.71642 6.76322 9.13268 5.89987C9.27393 5.60654 9.35935 5.42987 9.48018 5.34362C9.5481 5.30046 9.61819 5.26082 9.69019 5.22486C10.186 4.96444 11.3477 4.35402 11.479 3.21025C11.5894 2.25565 10.8998 1.3498 9.94311 1.19104C9.71904 1.1533 9.48972 1.16031 9.26838 1.21166C9.04704 1.26301 8.83806 1.35768 8.6535 1.49022C8.46828 1.62195 8.31101 1.78909 8.19078 1.98198C8.07056 2.17487 7.98976 2.38968 7.95307 2.61399C7.94224 2.70315 7.8739 2.80524 7.78599 2.82274C7.65144 2.84784 7.52806 2.91426 7.43301 3.01274C7.33796 3.11123 7.27597 3.23689 7.25567 3.37225C7.23536 3.5076 7.25775 3.64592 7.31971 3.76796C7.38168 3.89 7.48014 3.9897 7.6014 4.05318C7.65008 4.07942 7.68634 4.12393 7.7022 4.17691C7.71806 4.22989 7.71223 4.287 7.68598 4.33568C7.65974 4.38436 7.61523 4.42062 7.56225 4.43648C7.50927 4.45234 7.45216 4.44651 7.40348 4.42027C7.20489 4.31401 7.04452 4.14829 6.94484 3.94632C6.84516 3.74435 6.81117 3.51625 6.84764 3.294C6.88035 3.10316 6.96357 2.92457 7.08865 2.77678C7.21373 2.62898 7.3761 2.51738 7.5589 2.45357C7.66825 1.92758 7.9725 1.46243 8.41058 1.15146C8.63951 0.986736 8.89884 0.869067 9.17356 0.805268C9.44828 0.741469 9.73293 0.732809 10.011 0.779787C11.1831 0.974374 12.0273 2.08606 11.8927 3.25775C11.7356 4.62069 10.3902 5.32736 9.88352 5.59362C9.80769 5.63362 9.75102 5.66195 9.72227 5.68195C9.68185 5.71945 9.58518 5.91987 9.50727 6.08071C9.14226 6.83822 8.42058 8.33325 6.70222 8.33325Z" fill="white"/>
</svg>
