<svg width="18" height="18" viewBox="0 0 18 18" fill="none" xmlns="http://www.w3.org/2000/svg">
    <path d="M15.6407 2.93929H14.708V2.05248C14.7077 1.74828 14.5868 1.45663 14.3717 1.24152C14.1566 1.0264 13.865 0.905386 13.5608 0.905029C13.2565 0.905335 12.9648 1.02632 12.7497 1.24144C12.5345 1.45655 12.4135 1.74823 12.4131 2.05248V2.93929H10.1473V2.2161C10.1473 1.58337 9.63258 1.06865 8.99985 1.06865C8.36713 1.06865 7.8524 1.58337 7.8524 2.2161V2.93929H5.5294V2.05248C5.5294 1.41976 5.01467 0.905029 4.38195 0.905029C3.74923 0.905029 3.2345 1.41976 3.2345 2.05248V2.93929H2.35904C1.4422 2.93929 0.696289 3.6852 0.696289 4.60205V15.4323C0.696289 16.3491 1.4422 17.095 2.35904 17.095H15.6407C16.5575 17.095 17.3034 16.3491 17.3034 15.4323V4.60205C17.3034 3.6852 16.5575 2.93929 15.6407 2.93929ZM12.9906 2.05248C12.9908 1.90134 13.051 1.75646 13.1579 1.64961C13.2647 1.54275 13.4096 1.48266 13.5608 1.48251C13.7119 1.48271 13.8567 1.54283 13.9635 1.64969C14.0703 1.75654 14.1304 1.90139 14.1306 2.05248V4.07654C14.1304 4.22763 14.0703 4.37248 13.9635 4.47934C13.8567 4.58619 13.7119 4.64631 13.5608 4.64651C13.4096 4.64636 13.2647 4.58627 13.1579 4.47942C13.051 4.37256 12.9908 4.22768 12.9906 4.07654V2.05248ZM8.42988 2.2161C8.42988 1.90176 8.68551 1.64613 8.99985 1.64613C9.3142 1.64613 9.56983 1.90176 9.56983 2.2161V4.24016C9.56983 4.5545 9.3142 4.81013 8.99985 4.81013C8.68551 4.81013 8.42988 4.5545 8.42988 4.24016V2.2161ZM3.81198 2.05248C3.81198 1.73814 4.06761 1.48251 4.38195 1.48251C4.69629 1.48251 4.95192 1.73833 4.95192 2.05248V4.07654C4.95192 4.39088 4.69629 4.64651 4.38195 4.64651C4.06761 4.64651 3.81198 4.39088 3.81198 4.07654V2.05248ZM2.35904 3.51677H3.2345V4.07635C3.2345 4.70907 3.74923 5.2238 4.38195 5.2238C5.01467 5.2238 5.5294 4.70907 5.5294 4.07635V3.51677H7.8524V4.24016C7.8524 4.87288 8.36713 5.38761 8.99985 5.38761C9.63258 5.38761 10.1473 4.87288 10.1473 4.24016V3.51677H12.4131V4.07635C12.4135 4.3806 12.5345 4.67228 12.7497 4.88739C12.9648 5.10251 13.2565 5.22349 13.5608 5.2238C13.865 5.22344 14.1566 5.10243 14.3717 4.88731C14.5868 4.6722 14.7077 4.38054 14.708 4.07635V3.51677H15.6407C15.9284 3.51713 16.2042 3.63158 16.4077 3.83504C16.6111 4.03849 16.7256 4.31432 16.7259 4.60205V5.96509H1.27377V4.60205C1.27412 4.31432 1.38858 4.03849 1.59203 3.83504C1.79548 3.63158 2.07132 3.51713 2.35904 3.51677ZM15.6407 16.5174H2.35904C2.07132 16.517 1.79548 16.4025 1.59203 16.1991C1.38858 15.9956 1.27412 15.7198 1.27377 15.4321V6.54257H16.7259V15.4323C16.7255 15.72 16.6111 15.9958 16.4076 16.1992C16.2042 16.4026 15.9284 16.517 15.6407 16.5174Z" fill="#799777"/>
    <path d="M15.3871 12.6632H14.5448L14.2845 11.8621C14.2656 11.8041 14.2289 11.7536 14.1795 11.7178C14.1302 11.682 14.0708 11.6628 14.0098 11.6628C13.9489 11.6628 13.8895 11.682 13.8401 11.7178C13.7908 11.7536 13.754 11.8041 13.7351 11.8621L13.4749 12.6632H12.6325C12.5715 12.6632 12.5121 12.6825 12.4627 12.7183C12.4134 12.7542 12.3766 12.8047 12.3578 12.8627C12.3389 12.9208 12.3389 12.9833 12.3578 13.0413C12.3766 13.0993 12.4134 13.1498 12.4628 13.1857L13.1442 13.6808L12.8839 14.4819C12.8651 14.5399 12.865 14.6024 12.8839 14.6604C12.9027 14.7185 12.9395 14.769 12.9888 14.8049C13.0382 14.8407 13.0976 14.86 13.1586 14.86C13.2196 14.86 13.2791 14.8406 13.3284 14.8047L14.0098 14.3096L14.6913 14.8047C14.7406 14.8406 14.8 14.86 14.861 14.86C14.922 14.86 14.9815 14.8406 15.0308 14.8047C15.0801 14.7689 15.1169 14.7183 15.1357 14.6604C15.1546 14.6024 15.1546 14.5399 15.1357 14.4819L14.8755 13.6808L15.5569 13.1857C15.6063 13.1498 15.643 13.0993 15.6619 13.0413C15.6808 12.9833 15.6808 12.9208 15.6619 12.8627C15.6431 12.8047 15.6063 12.7542 15.5569 12.7183C15.5076 12.6825 15.4481 12.6632 15.3871 12.6632ZM14.3663 13.337C14.317 13.3728 14.2803 13.4233 14.2614 13.4813C14.2426 13.5393 14.2426 13.6018 14.2614 13.6598L14.3119 13.8151L14.1796 13.7191C14.1303 13.6832 14.0708 13.6639 14.0098 13.6639C13.9488 13.6639 13.8894 13.6832 13.84 13.7191L13.7078 13.8153L13.7582 13.6598C13.7771 13.6018 13.7771 13.5393 13.7582 13.4813C13.7394 13.4233 13.7027 13.3728 13.6533 13.337L13.5209 13.2407H13.6845C13.7455 13.2407 13.805 13.2214 13.8543 13.1856C13.9037 13.1497 13.9404 13.0991 13.9592 13.0411L14.0096 12.8858L14.0601 13.0411C14.0789 13.0991 14.1157 13.1497 14.165 13.1855C14.2143 13.2214 14.2738 13.2407 14.3348 13.2407H14.4984L14.3663 13.337ZM14.01 10.4398C14.8041 10.4398 15.4499 9.79394 15.4499 8.99991C15.4499 8.20587 14.8041 7.56006 14.01 7.56006C13.216 7.56006 12.5702 8.20587 12.5702 8.99991C12.5702 9.79394 13.216 10.4398 14.01 10.4398ZM14.01 8.13754C14.4855 8.13754 14.8724 8.52445 14.8724 8.99991C14.8724 9.47536 14.4855 9.86227 14.01 9.86227C13.5346 9.86227 13.1477 9.47536 13.1477 8.99991C13.1477 8.52445 13.5346 8.13754 14.01 8.13754ZM9.1977 7.56006C8.40367 7.56006 7.75785 8.20587 7.75785 8.99991C7.75785 9.79394 8.40367 10.4398 9.1977 10.4398C9.99173 10.4398 10.6375 9.79394 10.6375 8.99991C10.6375 8.20587 9.99173 7.56006 9.1977 7.56006ZM9.1977 9.86227C8.72224 9.86227 8.33533 9.47536 8.33533 8.99991C8.33533 8.52445 8.72224 8.13754 9.1977 8.13754C9.67316 8.13754 10.0601 8.52445 10.0601 8.99991C10.0601 9.47536 9.67316 9.86227 9.1977 9.86227ZM4.00039 7.56006C3.20636 7.56006 2.56055 8.20587 2.56055 8.99991C2.56055 9.79394 3.20636 10.4398 4.00039 10.4398C4.79443 10.4398 5.44024 9.79394 5.44024 8.99991C5.44024 8.20587 4.79443 7.56006 4.00039 7.56006ZM4.00039 9.86227C3.52494 9.86227 3.13803 9.47536 3.13803 8.99991C3.13803 8.52445 3.52494 8.13754 4.00039 8.13754C4.47585 8.13754 4.86276 8.52445 4.86276 8.99991C4.86276 9.47536 4.47585 9.86227 4.00039 9.86227ZM9.1977 11.9874C8.40367 11.9874 7.75785 12.6332 7.75785 13.4272C7.75785 14.2213 8.40367 14.8671 9.1977 14.8671C9.99173 14.8671 10.6375 14.2213 10.6375 13.4272C10.6375 12.6332 9.99173 11.9874 9.1977 11.9874ZM9.1977 14.2896C8.72224 14.2896 8.33533 13.9027 8.33533 13.4272C8.33533 12.9518 8.72224 12.5649 9.1977 12.5649C9.67316 12.5649 10.0601 12.9518 10.0601 13.4272C10.0601 13.9027 9.67316 14.2896 9.1977 14.2896ZM4.00039 11.9874C3.20636 11.9874 2.56055 12.6332 2.56055 13.4272C2.56055 14.2213 3.20636 14.8671 4.00039 14.8671C4.79443 14.8671 5.44024 14.2213 5.44024 13.4272C5.44024 12.6332 4.79443 11.9874 4.00039 11.9874ZM4.00039 14.2896C3.52494 14.2896 3.13803 13.9027 3.13803 13.4272C3.13803 12.9518 3.52494 12.5649 4.00039 12.5649C4.47585 12.5649 4.86276 12.9518 4.86276 13.4272C4.86276 13.9027 4.47585 14.2896 4.00039 14.2896Z" fill="#799777"/>
</svg>
