<svg width="24" height="28" viewBox="0 0 24 28" fill="none" xmlns="http://www.w3.org/2000/svg">
    <path d="M9.33332 19.3333H2.66666V26M14.6667 8.66667H21.3333V2M2.11066 10.004C2.85838 8.15393 4.11008 6.55069 5.72349 5.37649C7.33691 4.20229 9.24735 3.5042 11.2377 3.36157C13.2281 3.21893 15.2185 3.63747 16.9829 4.56961C18.7472 5.50175 20.2148 6.91012 21.2187 8.63467M21.8907 17.996C21.1431 19.8464 19.8914 21.45 18.2778 22.6244C16.6643 23.7989 14.7536 24.4971 12.763 24.6398C10.7724 24.7824 8.78169 24.3638 7.01717 23.4314C5.25265 22.499 3.78509 21.0903 2.78132 19.3653" stroke="white" stroke-width="2.66667" stroke-linecap="round" stroke-linejoin="round"/>
</svg>
