<svg width="24" height="24" viewBox="0 0 24 24" fill="none" xmlns="http://www.w3.org/2000/svg">
    <path d="M1.85351 4.1966H3.33862V16.4003C3.33862 18.2259 4.82373 19.711 6.6493 19.711H13.7322C15.5578 19.711 17.0429 18.2259 17.0429 16.4003V4.1966H18.528C18.7754 4.1966 18.9762 3.996 18.9762 3.74843C18.9762 3.50087 18.7754 3.30026 18.528 3.30026H13.7492V2.52799C13.7492 1.29452 12.7458 0.291016 11.5122 0.291016H8.86936C7.63578 0.291016 6.63239 1.29456 6.63239 2.52799V3.3003H1.85351C1.6061 3.3003 1.40533 3.50091 1.40533 3.74847C1.40533 3.99603 1.6061 4.1966 1.85351 4.1966ZM7.52866 2.52799C7.52866 1.7888 8.12998 1.18732 8.86932 1.18732H11.5121C12.2515 1.18732 12.8528 1.7888 12.8528 2.52799V3.3003H7.52866V2.52799ZM4.23492 4.19676H16.1466V16.4004C16.1466 17.7317 15.0636 18.8147 13.7322 18.8147H6.6493C5.31796 18.8147 4.23492 17.7317 4.23492 16.4004V4.19676Z" fill="#676565"/>
    <path d="M8.54228 15.2786C8.78969 15.2786 8.99045 15.078 8.99045 14.8305V8.18301C8.99045 7.93545 8.78973 7.73484 8.54228 7.73484C8.29483 7.73484 8.09411 7.93545 8.09411 8.18301V14.8305C8.09411 15.078 8.29487 15.2786 8.54228 15.2786ZM11.8392 15.2783C12.0866 15.2783 12.2874 15.0777 12.2874 14.8301V11.508C12.2874 11.2604 12.0867 11.0598 11.8392 11.0598C11.5918 11.0598 11.3911 11.2604 11.3911 11.508V14.8301C11.3911 15.0778 11.5918 15.2783 11.8392 15.2783ZM11.8392 9.79589C12.0866 9.79589 12.2874 9.59528 12.2874 9.34772V8.18255C12.2874 7.93498 12.0867 7.73438 11.8392 7.73438C11.5918 7.73438 11.3911 7.93498 11.3911 8.18255V9.34772C11.3911 9.59528 11.5918 9.79589 11.8392 9.79589Z" fill="#676565"/>
</svg>
