<svg width="46" height="44" viewBox="0 0 46 44" fill="none" xmlns="http://www.w3.org/2000/svg">
    <path d="M45.7502 15.7248V34.6668C45.8881 35.8491 45.7567 37.0474 45.3657 38.1718C44.9748 39.2962 44.3344 40.3175 43.4927 41.1593C42.6509 42.001 41.6296 42.6414 40.5052 43.0323C39.3808 43.4233 38.1826 43.5547 37.0002 43.4168H9.00017C7.81777 43.5547 6.6195 43.4233 5.49511 43.0323C4.37073 42.6414 3.34941 42.001 2.50766 41.1593C1.66591 40.3175 1.02557 39.2962 0.634613 38.1718C0.243657 37.0474 0.112225 35.8491 0.250165 34.6668V11.3334C0.112225 10.151 0.243657 8.95275 0.634613 7.82837C1.02557 6.70399 1.66591 5.68266 2.50766 4.84091C3.34941 3.99916 4.37073 3.35882 5.49511 2.96786C6.6195 2.57691 7.81777 2.44548 9.00017 2.58342H29.5335C29.6367 2.58612 29.7381 2.61164 29.8303 2.65814C29.9226 2.70464 30.0033 2.77097 30.0669 2.85237C30.1305 2.93378 30.1752 3.02824 30.198 3.12899C30.2207 3.22973 30.2209 3.33426 30.1985 3.43508C29.648 6.16142 30.2016 8.99481 31.738 11.3133C33.2744 13.6319 35.6679 15.2461 38.3932 15.8018C40.5502 16.233 42.7881 15.9759 44.7912 15.0668C44.898 15.0242 45.0136 15.0086 45.1278 15.0214C45.2421 15.0341 45.3515 15.0748 45.4462 15.1399C45.541 15.2049 45.6184 15.2923 45.6714 15.3943C45.7244 15.4963 45.7514 15.6098 45.7502 15.7248Z" fill="#9CC198"/>
    <path d="M42.0447 28.0451L31.6567 17.6571C31.2167 17.2188 30.621 16.9727 30 16.9727C29.379 16.9727 28.7833 17.2188 28.3433 17.6571L16.8167 29.1838C16.5986 29.3975 16.3054 29.5173 16 29.5173C15.6946 29.5173 15.4014 29.3975 15.1833 29.1838L12.99 26.9904C12.55 26.5521 11.9543 26.3061 11.3333 26.3061C10.7123 26.3061 10.1166 26.5521 9.67667 26.9904L3.95533 32.7118C3.82402 32.8429 3.75016 33.0208 3.75 33.2064V34.6671C3.75 38.3538 5.31333 39.9171 9 39.9171H37C40.6867 39.9171 42.25 38.3538 42.25 34.6671V28.5398C42.2498 28.3542 42.176 28.1762 42.0447 28.0451ZM13.6667 18.9171C13.2836 18.9185 12.9041 18.8444 12.5497 18.6991C12.1953 18.5538 11.873 18.3401 11.6012 18.0702C11.0522 17.5252 10.7423 16.7845 10.7395 16.0109C10.7367 15.2374 11.0413 14.4944 11.5863 13.9455C12.1314 13.3965 12.8721 13.0865 13.6457 13.0838H13.6667C14.4402 13.0838 15.1821 13.3911 15.7291 13.938C16.276 14.485 16.5833 15.2269 16.5833 16.0004C16.5833 16.774 16.276 17.5158 15.7291 18.0628C15.1821 18.6098 14.4402 18.9171 13.6667 18.9171ZM45.2367 4.26376L41.7367 0.763761C41.4082 0.436613 40.9636 0.25293 40.5 0.25293C40.0364 0.25293 39.5918 0.436613 39.2633 0.763761L35.7633 4.26376C35.4542 4.5955 35.2859 5.03428 35.2939 5.48765C35.3019 5.94102 35.4856 6.37358 35.8062 6.69421C36.1268 7.01484 36.5594 7.1985 37.0128 7.2065C37.4661 7.2145 37.9049 7.04621 38.2367 6.73709L38.75 6.22609V11.3338C38.75 11.7979 38.9344 12.243 39.2626 12.5712C39.5907 12.8994 40.0359 13.0838 40.5 13.0838C40.9641 13.0838 41.4092 12.8994 41.7374 12.5712C42.0656 12.243 42.25 11.7979 42.25 11.3338V6.22609L42.7633 6.73709C43.0951 7.04621 43.5338 7.2145 43.9872 7.2065C44.4406 7.1985 44.8731 7.01484 45.1938 6.69421C45.5144 6.37358 45.6981 5.94102 45.7061 5.48765C45.7141 5.03428 45.5458 4.5955 45.2367 4.26376Z" fill="white"/>
</svg>
