<svg width="56" height="56" viewBox="0 0 56 56" fill="none" xmlns="http://www.w3.org/2000/svg">
    <path d="M50.7502 20.7248V39.6668C50.8881 40.8491 50.7567 42.0474 50.3657 43.1718C49.9748 44.2962 49.3344 45.3175 48.4927 46.1593C47.6509 47.001 46.6296 47.6414 45.5052 48.0323C44.3808 48.4233 43.1826 48.5547 42.0002 48.4168H14.0002C12.8178 48.5547 11.6195 48.4233 10.4951 48.0323C9.37073 47.6414 8.34941 47.001 7.50766 46.1593C6.66591 45.3175 6.02557 44.2962 5.63461 43.1718C5.24366 42.0474 5.11223 40.8491 5.25017 39.6668V16.3334C5.11223 15.151 5.24366 13.9527 5.63461 12.8284C6.02557 11.704 6.66591 10.6827 7.50766 9.84091C8.34941 8.99916 9.37073 8.35882 10.4951 7.96786C11.6195 7.57691 12.8178 7.44548 14.0002 7.58342H34.5335C34.6367 7.58612 34.7381 7.61164 34.8303 7.65814C34.9226 7.70464 35.0033 7.77097 35.0669 7.85237C35.1305 7.93378 35.1752 8.02824 35.198 8.12899C35.2207 8.22973 35.2209 8.33426 35.1985 8.43508C34.648 11.1614 35.2016 13.9948 36.738 16.3133C38.2744 18.6319 40.6679 20.2461 43.3932 20.8018C45.5502 21.233 47.7881 20.9759 49.7912 20.0668C49.898 20.0242 50.0136 20.0086 50.1278 20.0214C50.2421 20.0341 50.3515 20.0748 50.4462 20.1399C50.541 20.2049 50.6184 20.2923 50.6714 20.3943C50.7244 20.4963 50.7514 20.6098 50.7502 20.7248Z" fill="#56BBFF" fill-opacity="0.56"/>
    <path d="M47.0447 33.0451L36.6567 22.6571C36.2167 22.2188 35.621 21.9727 35 21.9727C34.379 21.9727 33.7833 22.2188 33.3433 22.6571L21.8167 34.1838C21.5986 34.3975 21.3054 34.5173 21 34.5173C20.6946 34.5173 20.4014 34.3975 20.1833 34.1838L17.99 31.9904C17.55 31.5521 16.9543 31.3061 16.3333 31.3061C15.7123 31.3061 15.1166 31.5521 14.6767 31.9904L8.95533 37.7118C8.82402 37.8429 8.75016 38.0208 8.75 38.2064V39.6671C8.75 43.3538 10.3133 44.9171 14 44.9171H42C45.6867 44.9171 47.25 43.3538 47.25 39.6671V33.5398C47.2498 33.3542 47.176 33.1762 47.0447 33.0451ZM18.6667 23.9171C18.2836 23.9185 17.9041 23.8444 17.5497 23.6991C17.1953 23.5538 16.873 23.3401 16.6012 23.0702C16.0522 22.5252 15.7423 21.7845 15.7395 21.0109C15.7367 20.2374 16.0413 19.4944 16.5863 18.9455C17.1314 18.3965 17.8721 18.0865 18.6457 18.0838H18.6667C19.4402 18.0838 20.1821 18.3911 20.7291 18.938C21.276 19.485 21.5833 20.2269 21.5833 21.0004C21.5833 21.774 21.276 22.5158 20.7291 23.0628C20.1821 23.6098 19.4402 23.9171 18.6667 23.9171ZM50.2367 9.26376L46.7367 5.76376C46.4082 5.43661 45.9636 5.25293 45.5 5.25293C45.0364 5.25293 44.5918 5.43661 44.2633 5.76376L40.7633 9.26376C40.4542 9.5955 40.2859 10.0343 40.2939 10.4876C40.3019 10.941 40.4856 11.3736 40.8062 11.6942C41.1268 12.0148 41.5594 12.1985 42.0128 12.2065C42.4661 12.2145 42.9049 12.0462 43.2367 11.7371L43.75 11.2261V16.3338C43.75 16.7979 43.9344 17.243 44.2626 17.5712C44.5907 17.8994 45.0359 18.0838 45.5 18.0838C45.9641 18.0838 46.4092 17.8994 46.7374 17.5712C47.0656 17.243 47.25 16.7979 47.25 16.3338V11.2261L47.7633 11.7371C48.0951 12.0462 48.5338 12.2145 48.9872 12.2065C49.4406 12.1985 49.8731 12.0148 50.1938 11.6942C50.5144 11.3736 50.6981 10.941 50.7061 10.4876C50.7141 10.0343 50.5458 9.5955 50.2367 9.26376Z" fill="white"/>
</svg>
