<svg width="24" height="24" viewBox="0 0 24 24" fill="none" xmlns="http://www.w3.org/2000/svg">
    <path d="M19 2H13C12.7348 2 12.4804 2.10536 12.2929 2.29289C12.1054 2.48043 12 2.73478 12 3C12 3.26522 12.1054 3.51957 12.2929 3.70711C12.4804 3.89464 12.7348 4 13 4H19C19.2652 4 19.5196 4.10536 19.7071 4.29289C19.8946 4.48043 20 4.73478 20 5V19C20 19.2652 19.8946 19.5196 19.7071 19.7071C19.5196 19.8946 19.2652 20 19 20H13C12.7348 20 12.4804 20.1054 12.2929 20.2929C12.1054 20.4804 12 20.7348 12 21C12 21.2652 12.1054 21.5196 12.2929 21.7071C12.4804 21.8946 12.7348 22 13 22H19C19.7956 22 20.5587 21.6839 21.1213 21.1213C21.6839 20.5587 22 19.7956 22 19V5C22 4.20435 21.6839 3.44129 21.1213 2.87868C20.5587 2.31607 19.7956 2 19 2Z" fill="#F04B4C"/>
    <path d="M7.707 15.2926C7.80251 15.3848 7.87869 15.4952 7.9311 15.6172C7.98351 15.7392 8.0111 15.8704 8.01225 16.0032C8.01341 16.136 7.9881 16.2676 7.93782 16.3905C7.88754 16.5134 7.81329 16.6251 7.7194 16.719C7.6255 16.8129 7.51385 16.8871 7.39095 16.9374C7.26806 16.9877 7.13638 17.013 7.0036 17.0118C6.87082 17.0107 6.7396 16.9831 6.6176 16.9307C6.49559 16.8783 6.38525 16.8021 6.293 16.7066L2.293 12.7066C2.10553 12.5191 2.00021 12.2648 2.00021 11.9996C2.00021 11.7344 2.10553 11.4801 2.293 11.2926L6.293 7.29259C6.38525 7.19708 6.49559 7.1209 6.6176 7.06849C6.7396 7.01608 6.87082 6.9885 7.0036 6.98734C7.13638 6.98619 7.26806 7.01149 7.39095 7.06177C7.51385 7.11205 7.6255 7.18631 7.7194 7.2802C7.81329 7.37409 7.88754 7.48574 7.93782 7.60864C7.9881 7.73154 8.01341 7.86321 8.01225 7.99599C8.0111 8.12877 7.98351 8.25999 7.9311 8.382C7.87869 8.504 7.80251 8.61435 7.707 8.70659L5.414 10.9996H17C17.2652 10.9996 17.5196 11.1049 17.7071 11.2925C17.8946 11.48 18 11.7344 18 11.9996C18 12.2648 17.8946 12.5192 17.7071 12.7067C17.5196 12.8942 17.2652 12.9996 17 12.9996H5.414L7.707 15.2926Z" fill="#F04B4C"/>
</svg>
