<svg width="19" height="18" viewBox="0 0 19 18" fill="none" xmlns="http://www.w3.org/2000/svg">
    <path d="M10.7028 12.6812C10.5188 12.6984 10.334 12.6568 10.1751 12.5626C10.1177 12.5037 10.0743 12.4327 10.0481 12.3548C10.0219 12.2769 10.0136 12.1941 10.0237 12.1126C10.028 11.975 10.0444 11.8381 10.0728 11.7035C10.1002 11.549 10.1357 11.3961 10.1791 11.2453L10.6619 9.58436C10.7116 9.42042 10.7445 9.25181 10.7601 9.08117C10.7601 8.89709 10.7846 8.77025 10.7846 8.69663C10.7897 8.53467 10.7581 8.37365 10.6922 8.2256C10.6263 8.07755 10.5278 7.94629 10.4041 7.84163C10.0958 7.60496 9.71193 7.48863 9.32413 7.51436C9.04621 7.51854 8.77047 7.56404 8.50594 7.64936C8.21685 7.73936 7.91275 7.84708 7.59367 7.97256L7.45459 8.51256C7.54867 8.47982 7.66324 8.44302 7.79413 8.40209C7.919 8.3651 8.04844 8.34582 8.17867 8.34482C8.36135 8.32503 8.54519 8.3699 8.69821 8.47163C8.74964 8.533 8.78811 8.60415 8.81131 8.68079C8.83451 8.75742 8.84196 8.83796 8.83321 8.91755C8.83275 9.05512 8.81767 9.19226 8.78821 9.32663C8.75955 9.46983 8.72275 9.62117 8.67775 9.78071L8.19094 11.4498C8.1517 11.6049 8.12031 11.762 8.09686 11.9203C8.07774 12.0558 8.06817 12.1925 8.06821 12.3293C8.06722 12.4923 8.10358 12.6534 8.17449 12.8002C8.2454 12.947 8.34898 13.0756 8.47729 13.1761C8.79033 13.4165 9.17969 13.5356 9.57363 13.5116C9.85103 13.5173 10.1275 13.4772 10.3918 13.3929C10.6236 13.3138 10.9332 13.2007 11.3205 13.0534L11.4514 12.5379C11.3465 12.5815 11.2385 12.617 11.1282 12.6443C10.9888 12.6761 10.8456 12.6885 10.7028 12.6812ZM11.2141 4.80621C10.9915 4.60174 10.6981 4.49173 10.3959 4.4994C10.0939 4.49259 9.80084 4.60248 9.57775 4.80621C9.16881 5.15882 9.12314 5.7762 9.47579 6.18518C9.50722 6.22163 9.54129 6.25571 9.57775 6.28713C10.0436 6.70384 10.7482 6.70384 11.2141 6.28713C11.623 5.93103 11.6659 5.31088 11.3098 4.90194C11.2802 4.86785 11.2482 4.83587 11.2141 4.80621Z" fill="#676565"/>
    <path d="M9.5 0C4.52943 0 0.5 4.02943 0.5 9C0.5 13.9706 4.52943 18 9.5 18C14.4706 18 18.5 13.9706 18.5 9C18.5 4.02943 14.4706 0 9.5 0ZM9.5 17.1818C4.9813 17.1818 1.31819 13.5187 1.31819 9C1.31819 4.4813 4.9813 0.818191 9.5 0.818191C14.0187 0.818191 17.6818 4.4813 17.6818 9C17.6818 13.5187 14.0187 17.1818 9.5 17.1818Z" fill="#676565"/>
</svg>
