<svg width="14" height="10" viewBox="0 0 14 10" fill="none" xmlns="http://www.w3.org/2000/svg">
    <path d="M12.2779 10H1.72238C1.35416 9.99956 1.00115 9.85309 0.740779 9.59272C0.480408 9.33235 0.333937 8.97933 0.333496 8.61111L0.333496 1.38889C0.333496 0.623333 0.956829 0 1.72238 0H12.2779C13.0435 0 13.6668 0.623333 13.6668 1.38889V8.61111C13.6668 9.37667 13.0435 10 12.2779 10ZM1.72238 0.555556C1.26294 0.555556 0.889052 0.929444 0.889052 1.38889V8.61111C0.889052 9.07056 1.26294 9.44444 1.72238 9.44444H12.2779C12.7374 9.44444 13.1113 9.07056 13.1113 8.61111V1.38889C13.1113 0.929444 12.7374 0.555556 12.2779 0.555556H1.72238Z" fill="white"/>
    <path d="M4.49951 5.00007C3.73396 5.00007 3.11062 4.37673 3.11062 3.61118C3.11062 2.84562 3.73396 2.22229 4.49951 2.22229C5.26507 2.22229 5.8884 2.84562 5.8884 3.61118C5.8884 4.37673 5.26507 5.00007 4.49951 5.00007ZM4.49951 2.77785C4.04007 2.77785 3.66618 3.15173 3.66618 3.61118C3.66618 4.07062 4.04007 4.44451 4.49951 4.44451C4.95896 4.44451 5.33285 4.07062 5.33285 3.61118C5.33285 3.15173 4.95896 2.77785 4.49951 2.77785ZM6.72173 7.77785C6.64806 7.77785 6.57741 7.74858 6.52532 7.69649C6.47322 7.64439 6.44396 7.57374 6.44396 7.50007V6.94451C6.44396 6.48507 6.07007 6.11118 5.61062 6.11118H3.3884C2.92896 6.11118 2.55507 6.48507 2.55507 6.94451V7.50007C2.55507 7.57374 2.5258 7.64439 2.47371 7.69649C2.42161 7.74858 2.35096 7.77785 2.27729 7.77785C2.20362 7.77785 2.13296 7.74858 2.08087 7.69649C2.02878 7.64439 1.99951 7.57374 1.99951 7.50007V6.94451C1.99951 6.17896 2.62285 5.55562 3.3884 5.55562H5.61062C6.37618 5.55562 6.99951 6.17896 6.99951 6.94451V7.50007C6.99951 7.57374 6.97025 7.64439 6.91815 7.69649C6.86606 7.74858 6.79541 7.77785 6.72173 7.77785ZM11.7217 3.3334H8.3884C8.31473 3.3334 8.24408 3.30414 8.19198 3.25204C8.13989 3.19995 8.11062 3.12929 8.11062 3.05562C8.11062 2.98195 8.13989 2.9113 8.19198 2.8592C8.24408 2.80711 8.31473 2.77785 8.3884 2.77785H11.7217C11.7954 2.77785 11.8661 2.80711 11.9182 2.8592C11.9702 2.9113 11.9995 2.98195 11.9995 3.05562C11.9995 3.12929 11.9702 3.19995 11.9182 3.25204C11.8661 3.30414 11.7954 3.3334 11.7217 3.3334ZM11.7217 5.55562H8.3884C8.31473 5.55562 8.24408 5.52636 8.19198 5.47426C8.13989 5.42217 8.11062 5.35152 8.11062 5.27785C8.11062 5.20417 8.13989 5.13352 8.19198 5.08143C8.24408 5.02933 8.31473 5.00007 8.3884 5.00007H11.7217C11.7954 5.00007 11.8661 5.02933 11.9182 5.08143C11.9702 5.13352 11.9995 5.20417 11.9995 5.27785C11.9995 5.35152 11.9702 5.42217 11.9182 5.47426C11.8661 5.52636 11.7954 5.55562 11.7217 5.55562ZM11.7217 7.77785H8.3884C8.31473 7.77785 8.24408 7.74858 8.19198 7.69649C8.13989 7.64439 8.11062 7.57374 8.11062 7.50007C8.11062 7.4264 8.13989 7.35574 8.19198 7.30365C8.24408 7.25156 8.31473 7.22229 8.3884 7.22229H11.7217C11.7954 7.22229 11.8661 7.25156 11.9182 7.30365C11.9702 7.35574 11.9995 7.4264 11.9995 7.50007C11.9995 7.57374 11.9702 7.64439 11.9182 7.69649C11.8661 7.74858 11.7954 7.77785 11.7217 7.77785Z" fill="white"/>
</svg>
