<svg width="24" height="24" viewBox="0 0 24 24" fill="none" xmlns="http://www.w3.org/2000/svg">
    <path d="M18.7175 5.28246C16.9232 3.48822 14.5375 2.5 12 2.5C9.4625 2.5 7.07677 3.48819 5.28246 5.28246C3.48822 7.07677 2.5 9.4625 2.5 12C2.5 14.5375 3.48819 16.9232 5.28246 18.7175C7.07677 20.5118 9.4625 21.5 12 21.5C14.5375 21.5 16.9232 20.5118 18.7175 18.7175C20.5118 16.9232 21.5 14.5375 21.5 12C21.5 9.4625 20.5118 7.07677 18.7175 5.28246ZM6.62304 18.4309C6.93676 15.7318 9.25739 13.6479 12 13.6479C13.4458 13.6479 14.8054 14.2112 15.8281 15.2337C16.692 16.0978 17.2369 17.226 17.3771 18.4308C15.9203 19.6509 14.0445 20.3867 12 20.3867C9.9555 20.3867 8.07988 19.6511 6.62304 18.4309ZM12 12.5012C10.4091 12.5012 9.1146 11.2068 9.1146 9.61587C9.1146 8.02481 10.4091 6.73047 12 6.73047C13.5909 6.73047 14.8854 8.02481 14.8854 9.61587C14.8854 11.2068 13.5909 12.5013 12 12.5013V12.5012ZM18.3353 17.4897C18.0492 16.3379 17.4545 15.2858 16.6152 14.4466C15.931 13.7624 15.1215 13.2491 14.2387 12.9274C15.3 12.2077 15.9987 10.9918 15.9987 9.61587C15.9987 7.41105 14.2048 5.61719 12 5.61719C9.79518 5.61719 8.00132 7.41105 8.00132 9.61587C8.00132 10.9926 8.70061 12.2089 9.76271 12.9285C8.9505 13.2245 8.19892 13.6821 7.55226 14.2845C6.6158 15.1566 5.96553 16.2686 5.66402 17.4888C4.38709 16.0168 3.61328 14.0971 3.61328 12C3.61328 7.37554 7.37554 3.61328 12 3.61328C16.6245 3.61328 20.3867 7.37554 20.3867 12C20.3867 14.0975 19.6126 16.0177 18.3353 17.4897Z" fill="#807E7E"/>
</svg>
