<svg width="46" height="36" viewBox="0 0 46 36" fill="none" xmlns="http://www.w3.org/2000/svg">
    <rect width="45.12" height="36" rx="8" fill="#56BBFF" fill-opacity="0.56"/>
    <path d="M16.5238 12.2065C16.6798 12.2065 16.8595 12.2167 17.063 12.2371C17.2732 12.2506 17.4428 12.271 17.5717 12.2981L17.3377 15.2076C17.2359 15.1737 17.0901 15.15 16.9002 15.1364C16.7171 15.1161 16.5577 15.1059 16.4221 15.1059C16.0219 15.1059 15.632 15.1568 15.2522 15.2585C14.8791 15.3602 14.5434 15.5264 14.245 15.757C13.9466 15.9808 13.7092 16.2792 13.5329 16.6522C13.3633 17.0185 13.2785 17.4695 13.2785 18.0053V23.7939H10.1757V12.4202H12.5257L12.9835 14.3328H13.1361C13.3599 13.9462 13.638 13.5935 13.9703 13.2747C14.3094 12.9492 14.6926 12.6915 15.1199 12.5016C15.554 12.3049 16.0219 12.2065 16.5238 12.2065Z" fill="white"/>
    <path d="M24.6201 12.1047C25.6713 12.1047 26.5767 12.3082 27.3363 12.7151C28.0959 13.1153 28.6826 13.6985 29.0963 14.4649C29.51 15.2313 29.7169 16.1673 29.7169 17.2727V18.7784H22.382C22.4159 19.6533 22.677 20.3417 23.1653 20.8436C23.6604 21.3386 24.3454 21.5862 25.2203 21.5862C25.946 21.5862 26.6107 21.5116 27.2143 21.3624C27.8179 21.2132 28.4384 20.9894 29.076 20.691V23.0918C28.513 23.3699 27.923 23.5734 27.3058 23.7022C26.6954 23.8311 25.9528 23.8955 25.0779 23.8955C23.9385 23.8955 22.9279 23.6853 22.0463 23.2648C21.1714 22.8443 20.483 22.2034 19.9811 21.342C19.486 20.4807 19.2384 19.3956 19.2384 18.0866C19.2384 16.7573 19.4623 15.6518 19.9099 14.7701C20.3643 13.8817 20.995 13.217 21.8021 12.7762C22.6092 12.3285 23.5485 12.1047 24.6201 12.1047ZM24.6404 14.3123C24.0368 14.3123 23.5349 14.5056 23.1348 14.8922C22.7414 15.2788 22.5142 15.8858 22.4532 16.7132H26.8073C26.8006 16.252 26.7158 15.8417 26.553 15.4823C26.397 15.1228 26.1596 14.8379 25.8409 14.6277C25.5289 14.4175 25.1287 14.3123 24.6404 14.3123Z" fill="white"/>
    <path d="M31.3837 22.2016C31.3837 21.5641 31.5566 21.1165 31.9025 20.8588C32.2552 20.6011 32.6791 20.4722 33.1742 20.4722C33.6557 20.4722 34.0694 20.6011 34.4153 20.8588C34.768 21.1165 34.9443 21.5641 34.9443 22.2016C34.9443 22.812 34.768 23.2529 34.4153 23.5242C34.0694 23.7954 33.6557 23.9311 33.1742 23.9311C32.6791 23.9311 32.2552 23.7954 31.9025 23.5242C31.5566 23.2529 31.3837 22.812 31.3837 22.2016ZM31.3837 13.7985C31.3837 13.161 31.5566 12.7134 31.9025 12.4557C32.2552 12.198 32.6791 12.0691 33.1742 12.0691C33.6557 12.0691 34.0694 12.198 34.4153 12.4557C34.768 12.7134 34.9443 13.161 34.9443 13.7985C34.9443 14.4157 34.768 14.86 34.4153 15.1312C34.0694 15.3957 33.6557 15.528 33.1742 15.528C32.6791 15.528 32.2552 15.3957 31.9025 15.1312C31.5566 14.86 31.3837 14.4157 31.3837 13.7985Z" fill="white"/>
</svg>
