<svg width="24" height="24" viewBox="0 0 24 24" fill="none" xmlns="http://www.w3.org/2000/svg">
    <path d="M2.81044 22H16.6037C16.7861 22 16.9152 21.8316 16.9152 21.6489V14.5186L21.3316 10.1019C21.394 10.0405 21.4295 9.9569 21.4303 9.86936C21.4311 9.78181 21.3972 9.69753 21.3359 9.63501L19.5785 7.87536C19.515 7.81337 19.4297 7.77865 19.3409 7.77859C19.2522 7.77852 19.1669 7.81313 19.1032 7.87503L16.9152 10.0498V6.69467C16.9169 6.65185 16.9101 6.60911 16.8951 6.56896C16.8801 6.52882 16.8572 6.49208 16.8278 6.46089L13.4889 3.10698C13.4597 3.07486 13.4244 3.04887 13.3851 3.03051C13.3457 3.01214 13.3032 3.00177 13.2598 3H2.81044C2.62813 3 2.5 3.16844 2.5 3.35092V21.6491C2.5 21.8316 2.62813 22 2.81044 22ZM13.3595 14.8384L14.3776 15.8565L12.8482 16.3678L13.3595 14.8384ZM14.9886 15.5328L13.683 14.2273L17.876 10.0437L19.1723 11.3399L14.9886 15.5328ZM19.347 8.57609L20.6398 9.86891L19.6389 10.8722L18.3439 9.57689L19.347 8.57609ZM13.6109 4.14863L15.806 6.34565H13.6109V4.14863ZM3.16087 3.66087H12.95V6.69467C12.948 6.73597 12.9547 6.77723 12.9696 6.81581C12.9844 6.85439 13.0072 6.88945 13.0363 6.91875C13.0654 6.9481 13.1003 6.97106 13.1388 6.98618C13.1773 7.00129 13.2185 7.00822 13.2598 7.00652H16.2543V10.7092L12.9726 13.9929C12.9379 14.0268 12.9121 14.0686 12.8974 14.1148L12.4314 15.5152H5.2963C5.20867 15.5152 5.12462 15.55 5.06265 15.612C5.00068 15.674 4.96587 15.758 4.96587 15.8457C4.96587 15.9333 5.00068 16.0173 5.06265 16.0793C5.12462 16.1413 5.20867 16.1761 5.2963 16.1761H12.2108L12.0117 16.7792C11.9922 16.8368 11.9894 16.8987 12.0035 16.9579C12.0176 17.017 12.048 17.071 12.0914 17.1137C12.1146 17.1369 12.1409 17.1674 12.1688 17.1674H5.29626C5.20863 17.1674 5.12458 17.2022 5.06261 17.2642C5.00064 17.3261 4.96583 17.4102 4.96583 17.4978C4.96583 17.5855 5.00064 17.6695 5.06261 17.7315C5.12458 17.7934 5.20863 17.8283 5.29626 17.8283H14.0943C14.2769 17.8283 14.4247 17.6803 14.4247 17.4978C14.4247 17.3153 14.2769 17.1674 14.0943 17.1674H12.4961L15.0936 16.3063C15.1393 16.2913 15.1805 16.2651 15.2135 16.2302L16.2543 15.1809V21.3391H3.16087V3.66087Z" fill="#676565"/>
    <path d="M14.0944 18.8188H5.29641C5.20877 18.8188 5.12472 18.8536 5.06275 18.9156C5.00079 18.9776 4.96597 19.0616 4.96597 19.1493C4.96597 19.2369 5.00079 19.3209 5.06275 19.3829C5.12472 19.4449 5.20877 19.4797 5.29641 19.4797H14.0944C14.277 19.4797 14.4248 19.3317 14.4248 19.1493C14.4248 18.9668 14.277 18.8188 14.0944 18.8188H14.0944ZM5.29641 14.5232H9.96392C10.1466 14.5232 10.2944 14.3752 10.2944 14.1927C10.2944 14.0103 10.1466 13.8623 9.96392 13.8623H5.29641C5.20877 13.8623 5.12472 13.8971 5.06275 13.9591C5.00079 14.0211 4.96597 14.1051 4.96597 14.1927C4.96597 14.2804 5.00079 14.3644 5.06275 14.4264C5.12472 14.4884 5.20877 14.5232 5.29641 14.5232Z" fill="#676565"/>
</svg>
