<svg width="100" height="100" viewBox="0 0 100 100" fill="none" xmlns="http://www.w3.org/2000/svg">
    <path d="M79.412 41.1764C79.4196 35.3623 78.1012 29.623 75.5571 24.3951C73.0129 19.1672 69.31 14.5883 64.73 11.0068C60.15 7.4252 54.8135 4.9353 49.1265 3.72645C43.4394 2.51759 37.5516 2.62162 31.9108 4.03061C26.27 5.4396 21.0248 8.11645 16.5741 11.8575C12.1235 15.5986 8.58467 20.3055 6.22679 25.62C3.8689 30.9345 2.75406 36.7168 2.96708 42.527C3.1801 48.3372 4.71536 54.0224 7.45608 59.15L3.04432 75.7117C2.91135 76.2101 2.91177 76.7346 3.04552 77.2327C3.17927 77.7308 3.44165 78.185 3.80635 78.5497C4.17105 78.9144 4.62523 79.1768 5.12335 79.3105C5.62146 79.4443 6.14599 79.4447 6.64432 79.3117L23.209 74.9C29.0315 78.0131 35.5615 79.5637 42.162 79.4005C48.7624 79.2373 55.2078 77.3658 60.8693 73.9688C66.5308 70.5717 71.215 65.765 74.4648 60.0177C77.7147 54.2705 79.4192 47.7789 79.412 41.1764ZM23.5914 68.8235C23.3363 68.8239 23.0824 68.8565 22.8355 68.9205L10.0326 72.3205L13.4443 59.5205C13.6455 58.7678 13.5397 57.966 13.1502 57.2911C9.22413 50.4768 7.90834 42.4679 9.44782 34.7556C10.9873 27.0434 15.2771 20.1534 21.5186 15.3687C27.76 10.5839 35.5276 8.23053 43.375 8.74665C51.2225 9.26278 58.6149 12.6133 64.1759 18.1742C69.7369 23.7352 73.0874 31.1277 73.6035 38.9751C74.1196 46.8226 71.7662 54.5902 66.9815 60.8316C62.1967 67.073 55.3068 71.3629 47.5945 72.9023C39.8823 74.4418 31.8733 73.126 25.059 69.2C24.6111 68.9484 24.1051 68.8186 23.5914 68.8235Z" fill="#799777"/>
    <path d="M92.9413 78.2706C96.2141 72.1138 97.5858 65.1241 96.8826 58.1871C96.1794 51.25 93.433 44.6778 88.9913 39.3029C88.7487 38.9949 88.447 38.7385 88.1038 38.5488C87.7607 38.3591 87.383 38.2399 86.9932 38.1983C86.6033 38.1566 86.209 38.1933 85.8335 38.3063C85.458 38.4193 85.1089 38.6061 84.8067 38.856C84.5045 39.1058 84.2553 39.4136 84.0738 39.7611C83.8923 40.1087 83.7821 40.489 83.7497 40.8798C83.7173 41.2705 83.7633 41.6638 83.8851 42.0365C84.007 42.4092 84.2021 42.7538 84.459 43.05C88.2703 47.6637 90.5798 53.3325 91.0777 59.2961C91.5755 65.2597 90.2379 71.233 87.2443 76.4147C86.8556 77.0888 86.7498 77.8893 86.9502 78.6412L89.9708 89.9677L78.6443 86.9471C77.8924 86.7467 77.0919 86.8525 76.4178 87.2412C71.1469 90.2859 65.0594 91.6156 58.999 91.046C52.9386 90.4763 47.2055 88.0355 42.5943 84.0618C42.3054 83.7856 41.9633 83.5711 41.5888 83.4315C41.2143 83.2919 40.8153 83.2301 40.4162 83.2499C40.017 83.2696 39.626 83.3705 39.2672 83.5464C38.9083 83.7223 38.589 83.9695 38.3289 84.2729C38.0687 84.5763 37.8731 84.9295 37.754 85.311C37.6349 85.6925 37.5948 86.0943 37.6362 86.4918C37.6775 86.8893 37.7994 87.2742 37.9945 87.623C38.1896 87.9719 38.4537 88.2773 38.7708 88.5206C44.147 93.1528 50.7974 96.0526 57.8501 96.8398C64.9029 97.6271 72.029 96.2651 78.2943 92.9324L93.3825 96.9559C93.8809 97.0889 94.4054 97.0884 94.9035 96.9547C95.4016 96.8209 95.8558 96.5586 96.2205 96.1939C96.5852 95.8292 96.8476 95.375 96.9813 94.8769C97.1151 94.3787 97.1155 93.8542 96.9825 93.3559L92.9413 78.2706ZM62.4384 51.2618C62.6149 50.9117 62.7196 50.5299 62.7464 50.1387C62.7732 49.7476 62.7215 49.3551 62.5944 48.9842C62.4674 48.6133 62.2674 48.2716 62.0063 47.9791C61.7453 47.6867 61.4284 47.4493 61.0742 47.2811C60.7201 47.1129 60.3359 47.0171 59.9443 46.9995C59.5526 46.9819 59.1614 47.0427 58.7936 47.1785C58.4258 47.3143 58.0889 47.5222 57.8026 47.79C57.5164 48.0579 57.2865 48.3803 57.1266 48.7382C55.6968 51.7586 53.4387 54.3109 50.6151 56.0982C47.7914 57.8856 44.5184 58.8344 41.1766 58.8344C37.8349 58.8344 34.5618 57.8856 31.7382 56.0982C28.9146 54.3109 26.6565 51.7586 25.2266 48.7382C24.8809 48.0524 24.2805 47.529 23.5539 47.28C22.8272 47.031 22.032 47.0761 21.3382 47.4057C20.6445 47.7353 20.1071 48.3232 19.8412 49.0438C19.5752 49.7644 19.6016 50.5604 19.9149 51.2618C21.8225 55.2863 24.8332 58.6867 28.5969 61.0678C32.3607 63.4489 36.7229 64.713 41.1766 64.713C45.6304 64.713 49.9926 63.4489 53.7564 61.0678C57.5201 58.6867 60.5308 55.2863 62.4384 51.2618ZM23.5296 35.2941C24.3096 35.2941 25.0577 34.9843 25.6093 34.4327C26.1609 33.8811 26.4708 33.133 26.4708 32.3529C26.4708 31.5729 26.7806 30.8248 27.3322 30.2732C27.8838 29.7216 28.6319 29.4118 29.4119 29.4118C30.192 29.4118 30.9401 29.7216 31.4917 30.2732C32.0432 30.8248 32.3531 31.5729 32.3531 32.3529C32.3531 33.133 32.663 33.8811 33.2146 34.4327C33.7661 34.9843 34.5142 35.2941 35.2943 35.2941C36.0743 35.2941 36.8224 34.9843 37.374 34.4327C37.9256 33.8811 38.2355 33.133 38.2355 32.3529C38.2355 30.0128 37.3058 27.7685 35.6511 26.1138C33.9964 24.459 31.7521 23.5294 29.4119 23.5294C27.0718 23.5294 24.8275 24.459 23.1728 26.1138C21.518 27.7685 20.5884 30.0128 20.5884 32.3529C20.5884 33.133 20.8983 33.8811 21.4499 34.4327C22.0014 34.9843 22.7495 35.2941 23.5296 35.2941ZM47.059 35.2941C47.839 35.2941 48.5871 34.9843 49.1387 34.4327C49.6903 33.8811 50.0002 33.133 50.0002 32.3529C50.0002 31.5729 50.31 30.8248 50.8616 30.2732C51.4132 29.7216 52.1613 29.4118 52.9413 29.4118C53.7214 29.4118 54.4695 29.7216 55.0211 30.2732C55.5727 30.8248 55.8825 31.5729 55.8825 32.3529C55.8825 33.133 56.1924 33.8811 56.744 34.4327C57.2955 34.9843 58.0437 35.2941 58.8237 35.2941C59.6037 35.2941 60.3518 34.9843 60.9034 34.4327C61.455 33.8811 61.7649 33.133 61.7649 32.3529C61.7649 30.0128 60.8353 27.7685 59.1805 26.1138C57.5258 24.459 55.2815 23.5294 52.9413 23.5294C50.6012 23.5294 48.3569 24.459 46.7022 26.1138C45.0474 27.7685 44.1178 30.0128 44.1178 32.3529C44.1178 33.133 44.4277 33.8811 44.9793 34.4327C45.5308 34.9843 46.2789 35.2941 47.059 35.2941Z" fill="#799777"/>
</svg>
