<svg width="20" height="13" viewBox="0 0 20 13" fill="none" xmlns="http://www.w3.org/2000/svg">
    <path d="M18.9 0.783424C18.6862 0.653237 18.4416 0.58252 18.1913 0.57859C17.9411 0.574659 17.6943 0.637657 17.4766 0.761067L13.9731 3.28274V2.32885C13.9723 1.71142 13.7267 1.1195 13.2902 0.68292C12.8536 0.246337 12.2617 0.000739575 11.6442 0H2.32885C1.71142 0.000739575 1.1195 0.246337 0.68292 0.68292C0.246337 1.1195 0.000739575 1.71142 0 2.32885V9.78115C0.000739575 10.3986 0.246337 10.9905 0.68292 11.4271C1.1195 11.8637 1.71142 12.1093 2.32885 12.11H11.6442C12.2617 12.1093 12.8536 11.8637 13.2902 11.4271C13.7267 10.9905 13.9723 10.3986 13.9731 9.78115V8.8254L17.5409 11.3871C17.754 11.4935 17.9907 11.5437 18.2287 11.5328C18.4666 11.522 18.6978 11.4505 18.9003 11.3251C19.1029 11.1998 19.27 11.0247 19.3859 10.8166C19.5017 10.6085 19.5625 10.3743 19.5623 10.1361V1.97207C19.5632 1.73376 19.5027 1.49925 19.3867 1.29108C19.2707 1.08291 19.1031 0.908089 18.9 0.783424ZM13.0415 9.78115C13.041 10.1516 12.8937 10.5067 12.6317 10.7687C12.3698 11.0306 12.0147 11.178 11.6442 11.1785H2.32885C1.95841 11.178 1.60328 11.0306 1.34134 10.7687C1.07941 10.5067 0.932031 10.1516 0.931538 9.78115V2.32885C0.932031 1.95841 1.07941 1.60328 1.34134 1.34134C1.60328 1.07941 1.95841 0.932031 2.32885 0.931538H11.6442C12.0147 0.932031 12.3698 1.07941 12.6317 1.34134C12.8937 1.60328 13.041 1.95841 13.0415 2.32885V9.78115ZM18.6308 10.1361C18.6296 10.2096 18.6116 10.2819 18.5781 10.3475C18.5447 10.413 18.4966 10.47 18.4377 10.514C18.3788 10.5581 18.3106 10.5881 18.2383 10.6017C18.166 10.6153 18.0915 10.6122 18.0206 10.5925L13.9731 7.67867V4.42947L17.9563 1.55474C18.0273 1.51915 18.1063 1.50232 18.1856 1.50584C18.265 1.50936 18.3421 1.53311 18.4097 1.57483C18.4773 1.61656 18.5331 1.67487 18.5718 1.74424C18.6105 1.8136 18.6308 1.89171 18.6308 1.97114V10.1361Z" fill="white"/>
</svg>
